<?xml version="1.0" encoding="UTF-8"?>
<svg xmlns="http://www.w3.org/2000/svg" xmlns:xlink="http://www.w3.org/1999/xlink" width="20pt" height="20pt" viewBox="0 0 20 20" version="1.1" style="
    position: absolute;
    left: 10px;
">
<g id="surface1">
<path style=" stroke:none;fill-rule:nonzero;fill:#56d68b;fill-opacity:1;" d="M 15.71875 2.515625 C 15.65625 2.578125 15.625 3.023438 15.625 4.007812 L 15.625 5.414062 L 15.054688 4.867188 C 14.109375 3.96875 13.226562 3.453125 11.976562 3.070312 C 11.351562 2.882812 11.179688 2.859375 10 2.859375 C 8.820312 2.859375 8.648438 2.882812 8.023438 3.070312 C 5.539062 3.835938 3.835938 5.539062 3.070312 8.023438 C 2.882812 8.648438 2.859375 8.820312 2.859375 10 C 2.859375 11.179688 2.882812 11.351562 3.070312 11.976562 C 3.835938 14.460938 5.539062 16.164062 8.023438 16.929688 C 8.648438 17.117188 8.820312 17.140625 10 17.140625 C 11.179688 17.140625 11.351562 17.117188 11.976562 16.929688 C 14.015625 16.304688 15.523438 15.054688 16.4375 13.226562 C 16.828125 12.445312 17.109375 11.421875 17.164062 10.570312 C 17.21875 9.757812 17.15625 9.609375 16.789062 9.609375 C 16.53125 9.609375 16.40625 9.789062 16.40625 10.179688 C 16.40625 10.328125 16.351562 10.742188 16.28125 11.101562 C 15.78125 13.742188 13.742188 15.78125 11.101562 16.28125 C 10.28125 16.4375 9.71875 16.4375 8.90625 16.28125 C 6.390625 15.804688 4.476562 14.015625 3.78125 11.484375 C 3.585938 10.78125 3.585938 9.21875 3.78125 8.515625 C 4.476562 5.984375 6.390625 4.195312 8.90625 3.71875 C 9.65625 3.570312 10.226562 3.5625 10.9375 3.679688 C 12.226562 3.882812 13.476562 4.523438 14.40625 5.429688 L 14.960938 5.976562 L 13.601562 6 C 12.757812 6.007812 12.195312 6.054688 12.132812 6.101562 C 12.007812 6.210938 12 6.578125 12.125 6.703125 C 12.195312 6.773438 12.789062 6.796875 14.3125 6.796875 L 16.40625 6.796875 L 16.40625 4.757812 C 16.40625 3.507812 16.375 2.664062 16.328125 2.570312 C 16.234375 2.398438 15.867188 2.367188 15.71875 2.515625 Z M 15.71875 2.515625 "/>
</g>
</svg>
